<svg width="42" height="44" viewBox="0 0 42 44" fill="none" xmlns="http://www.w3.org/2000/svg">
<path d="M7.875 10.9998C9.808 10.9998 11.375 9.35821 11.375 7.33317C11.375 5.30813 9.808 3.6665 7.875 3.6665C5.942 3.6665 4.375 5.30813 4.375 7.33317C4.375 9.35821 5.942 10.9998 7.875 10.9998Z" stroke="#0D99FF" stroke-width="2"/>
<path d="M4.375 16.5H11.375V39.4167H4.375V16.5ZM18.375 25.2083V39.4167H24.5V26.5833C24.5 24.2917 25.8125 22.4583 28 22.4583C30.1875 22.4583 31.5 24.75 31.5 26.5833V39.4167H37.625V25.2083C37.625 22.4583 34.5625 16.5 28 16.5C21.4375 16.5 18.375 22.4583 18.375 25.2083Z" stroke="#0D99FF" stroke-width="2" stroke-linejoin="round"/>
</svg>
